<svg version="1.2" baseProfile="tiny" id="EdgeSVG_gsuqG" x="0px" y="0px" width="50px" height="150px" viewBox="0 0 50 150" xmlns:xlink="http://www.w3.org/1999/xlink" xmlns="http://www.w3.org/2000/svg">
  <linearGradient id="SVGID_2_" gradientUnits="userSpaceOnUse" x1="2" y1="75" x2="48" y2="75">
    <stop offset="0" style="stop-color:#000000;stop-opacity:0.35"/>
    <stop offset="0.0463" style="stop-color:#000000;stop-opacity:0.3175"/>
    <stop offset="0.4977" style="stop-color:#000000;stop-opacity:0"/>
    <stop offset="1" style="stop-color:#000000;stop-opacity:0.35"/>
  </linearGradient>
  <path fill="url(#SVGID_2_)" d="M45,148c1.654,0,3-1.346,3-3V5c0-1.654-1.346-3-3-3H5C3.346,2,2,3.346,2,5v140c0,1.654,1.346,3,3,3&#xD;&#xA;&#x9;&#x9;H45z"/>
  <linearGradient id="SVGID_3_" gradientUnits="userSpaceOnUse" x1="25.0005" y1="148" x2="25.0005" y2="2.0005">
    <stop offset="0.0181" style="stop-color:#000000;stop-opacity:0.35"/>
    <stop offset="0.681" style="stop-color:#000000;stop-opacity:0.03"/>
    <stop offset="1" style="stop-color:#000000;stop-opacity:0.2"/>
  </linearGradient>
  <path fill="url(#SVGID_3_)" d="M45,148c1.654,0,3-1.346,3-3V5c0-1.654-1.346-3-3-3H5C3.346,2,2,3.346,2,5v140c0,1.654,1.346,3,3,3&#xD;&#xA;&#x9;&#x9;H45z"/>
  <linearGradient id="SVGID_4_" gradientUnits="userSpaceOnUse" x1="24.9995" y1="0" x2="24.9995" y2="150.0005">
    <stop offset="0.0181" style="stop-color:#000000;stop-opacity:0.55"/>
    <stop offset="0.0407" style="stop-color:#000000;stop-opacity:0.3"/>
    <stop offset="0.9593" style="stop-color:#000000;stop-opacity:0.2"/>
    <stop offset="0.9864" style="stop-color:#FFFFFF;stop-opacity:0.3"/>
  </linearGradient>
  <path fill="url(#SVGID_4_)" d="M50,145c0,2.75-2.25,5-5,5H5c-2.75,0-5-2.25-5-5V5c0-2.75,2.25-5,5-5h40c2.75,0,5,2.25,5,5V145z&#xD;&#xA;&#x9;&#x9; M45,148c1.654,0,3-1.346,3-3V5c0-1.654-1.346-3-3-3H5C3.346,2,2,3.346,2,5v140c0,1.654,1.346,3,3,3H45z"/>
</svg>